<?xml version="1.0" encoding="utf-8"?>
<!-- Generator: Adobe Illustrator 21.1.0, SVG Export Plug-In . SVG Version: 6.00 Build 0)  -->
<svg version="1.1" id="Layer_1" xmlns="http://www.w3.org/2000/svg" xmlns:xlink="http://www.w3.org/1999/xlink" x="0px" y="0px"
	 viewBox="0 0 1024 768" style="enable-background:new 0 0 1024 768;" xml:space="preserve">
<style type="text/css">
	.st0{fill:#3B5998;}
	.st1{fill:#FFFFFF;}
</style>
<g>
	<path class="st0" d="M90.8,44.9c0,24.8-20.1,44.9-44.9,44.9S1,69.7,1,44.9C1,20.1,21.1,0,45.9,0S90.8,20.1,90.8,44.9L90.8,44.9z
		 M90.8,44.9"/>
	<path class="st1" d="M57.2,46.6h-8V76H37V46.6h-5.8V36.3H37v-6.7c0-4.8,2.3-12.2,12.2-12.2l9,0v10h-6.5c-1.1,0-2.6,0.5-2.6,2.8v6.1
		h9.1L57.2,46.6z M57.2,46.6"/>
</g>
</svg>
