<?xml version="1.0" encoding="utf-8"?>
<!-- Generator: Adobe Illustrator 21.1.0, SVG Export Plug-In . SVG Version: 6.00 Build 0)  -->
<svg version="1.1" id="Layer_1" xmlns="http://www.w3.org/2000/svg" xmlns:xlink="http://www.w3.org/1999/xlink" x="0px" y="0px"
	 viewBox="0 0 1024 768" style="enable-background:new 0 0 1024 768;" xml:space="preserve">
<g>
	<path d="M657.4,237H365.3c-26.1,0-47.3,21.2-47.3,47.3V484c0,26.1,21.2,47.3,47.3,47.3h292.1c26.1,0,47.3-21.2,47.3-47.3V284.4
		C704.7,258.3,683.5,237,657.4,237L657.4,237z M683.1,484c0,14.2-11.5,25.7-25.7,25.7H365.3c-14.2,0-25.7-11.5-25.7-25.7V284.4
		c0-14.2,11.5-25.7,25.7-25.7h292.1c14.2,0,25.7,11.5,25.7,25.7L683.1,484L683.1,484z M683.1,484"/>
	<path d="M561.8,381.6l94.6-84.8c4.4-4,4.8-10.8,0.8-15.3c-4-4.4-10.8-4.8-15.3-0.8l-130.4,117l-25.4-22.7c-0.1-0.1-0.2-0.2-0.2-0.2
		c-0.6-0.6-1.1-1-1.8-1.5l-103.5-92.6c-4.5-4-11.3-3.6-15.3,0.9c-4,4.5-3.6,11.3,0.9,15.3l95.7,85.5l-95.3,89.2
		c-4.3,4.1-4.6,10.9-0.5,15.3c2.2,2.2,5,3.4,7.9,3.4c2.6,0,5.3-1,7.4-2.9l96.7-90.5l26.2,23.4c2.1,1.8,4.6,2.7,7.2,2.7
		c2.6,0,5.2-1,7.2-2.8l27-24.2l96.2,91.4c2.1,2,4.8,3,7.4,3c2.9,0,5.7-1.1,7.8-3.4c4.1-4.3,3.9-11.2-0.4-15.3L561.8,381.6z
		 M561.8,381.6"/>
</g>
</svg>
