<?xml version="1.0" encoding="utf-8"?>
<!-- Generator: Adobe Illustrator 21.1.0, SVG Export Plug-In . SVG Version: 6.00 Build 0)  -->
<svg version="1.1" id="Layer_1" xmlns="http://www.w3.org/2000/svg" xmlns:xlink="http://www.w3.org/1999/xlink" x="0px" y="0px"
	 viewBox="0 0 576 86" style="enable-background:new 0 0 576 86;" xml:space="preserve">
<style type="text/css">
	.st0{fill:#F7981D;}
	.st1{fill:#7D88A4;}
	.st2{fill:#FFFFFF;}
</style>
<g>
	<circle class="st0" cx="107.8" cy="45.7" r="31.2"/>
	<circle class="st1" cx="65.2" cy="45.7" r="31.2"/>
</g>
<g>
	<path class="st2" d="M188.4,66.5l-6.3-12h-0.2h-8.2v12h-11.3V23.1h19.5c11.5,0,18.1,5.6,18.1,15.3c0,6.6-2.7,11.4-7.7,14l9.1,14.2
		H188.4z M173.7,45.5h8.2c4.6,0,7.3-2.4,7.3-6.8c0-4.3-2.7-6.6-7.3-6.6h-8.2V45.5z"/>
	<path class="st2" d="M238.9,52.7h-23.3c1.1,3.8,3.8,5.9,7.6,5.9c2.9,0,5.6-1.2,7.9-3.4l5.8,5.8c-3.4,3.8-8.4,6-14.6,6
		c-11,0-17.7-6.8-17.7-17c0-10.4,7-17.3,17.5-17.3C233.7,32.6,239.6,40.5,238.9,52.7z M228.2,46.8c0-3.8-2.5-6.4-6.2-6.4
		c-3.6,0-6,2.6-6.7,6.4H228.2z"/>
	<path class="st2" d="M278.9,45.4v21.1h-11v-18c0-3.8-2.2-6.1-5.7-6.1c-3.7,0.1-6.1,2.6-6.6,6.4v17.7h-11V33h11v5.5
		c2.4-3.8,6.2-5.9,11.1-5.9C274,32.6,278.9,37.5,278.9,45.4z"/>
	<path class="st2" d="M308.2,64.8c-2.4,1.4-5.8,2.2-9.1,2.2c-6.5,0.1-11.2-3.8-11.2-10.7V41.9h-4.6v-7.3h4.6v-9.3h11v9.3h8.7v7.3
		h-8.7v12.6c0,2.5,1.1,3.6,3,3.5c1.1,0,2.5-0.4,4.2-1.1L308.2,64.8z"/>
	<path class="st2" d="M335.5,23.1L347,48.4l11.5-25.4h12.4v43.5h-10L360.8,39l-10.1,23.2h-7.4L333.2,39v27.5h-10.1V23.1H335.5z"/>
	<path class="st2" d="M384.3,79.1c-3.8,0-6.9-1.1-9.9-3.5L379,68c1.5,1.3,2.9,1.9,4.5,1.9c1.9,0,3.2-0.9,4-2.5l0.8-1.6L374.4,33
		h11.3l8,21.8l7.1-21.8h11l-14.4,36.8C394.9,76.1,390.7,79.1,384.3,79.1z"/>
	<path class="st2" d="M454,44.3h9.8v17.1c-4.6,3.2-12,5.6-18.1,5.6c-13.3,0-23.2-9.5-23.2-22.2s10.2-22.1,24-22.1
		c6.5,0,13.4,2.5,17.9,6.4l-6.4,7.9c-3.1-2.9-7.5-4.8-11.5-4.8c-7,0-12.3,5.4-12.3,12.5c0,7.1,5.3,12.5,12.4,12.5
		c2.2,0,4.9-0.7,7.5-2V44.3z"/>
	<path class="st2" d="M502.9,52.7h-23.3c1.1,3.8,3.8,5.9,7.6,5.9c2.9,0,5.6-1.2,7.9-3.4l5.8,5.8c-3.4,3.8-8.4,6-14.6,6
		c-11,0-17.7-6.8-17.7-17c0-10.4,7-17.3,17.5-17.3C497.7,32.6,503.7,40.5,502.9,52.7z M492.3,46.8c0-3.8-2.5-6.4-6.2-6.4
		c-3.6,0-6,2.6-6.7,6.4H492.3z"/>
	<path class="st2" d="M538.5,44.7v21.8h-10.8v-3.8c-2.2,2.8-5.6,4.3-10.1,4.3c-7.2,0-11.5-4.3-11.5-10.5c0-6.4,4.5-10,12.8-10.2h8.7
		V46c0-3.2-2.2-5-6.4-5c-2.8,0-6.4,0.9-10,2.7l-3-7.4c5.3-2.4,10.1-3.7,15.6-3.7C533,32.6,538.4,37,538.5,44.7z M527.6,55.2v-2.9
		H521c-3.1,0-4.7,1.1-4.7,3.5c0,2.3,1.7,3.8,4.5,3.8C524.2,59.5,526.9,57.7,527.6,55.2z"/>
	<path class="st2" d="M567.7,32.6v10.1c-6.1-0.6-10.2,2.1-10.8,6.8v17.1h-11V33h11v5.6C559.2,34.7,563,32.6,567.7,32.6z"/>
</g>
</svg>
