<?xml version="1.0" encoding="utf-8"?>
<!-- Generator: Adobe Illustrator 21.1.0, SVG Export Plug-In . SVG Version: 6.00 Build 0)  -->
<svg version="1.1" id="Layer_1" xmlns="http://www.w3.org/2000/svg" xmlns:xlink="http://www.w3.org/1999/xlink" x="0px" y="0px"
	 viewBox="0 0 1024 768" style="enable-background:new 0 0 1024 768;" xml:space="preserve">
<style type="text/css">
	.st0{fill:#55ACEE;}
	.st1{fill:#F1F2F2;}
</style>
<g>
	<path class="st0" d="M89.8,44.9c0,24.8-20.1,44.9-44.9,44.9S0,69.7,0,44.9C0,20.1,20.1,0,44.9,0S89.8,20.1,89.8,44.9L89.8,44.9z
		 M89.8,44.9"/>
	<path class="st1" d="M72.4,32.3c-1.9,0.9-4,1.4-6.2,1.7c2.2-1.3,3.9-3.4,4.7-5.9c-2.1,1.2-4.4,2.1-6.8,2.6c-2-2.1-4.7-3.4-7.8-3.4
		c-5.9,0-10.7,4.8-10.7,10.7c0,0.8,0.1,1.7,0.3,2.4c-8.9-0.4-16.8-4.7-22.1-11.2c-0.9,1.6-1.5,3.4-1.5,5.4c0,3.7,1.9,7,4.8,8.9
		c-1.8-0.1-3.4-0.5-4.9-1.3c0,0,0,0.1,0,0.1c0,5.2,3.7,9.5,8.6,10.5c-0.9,0.2-1.8,0.4-2.8,0.4c-0.7,0-1.4-0.1-2-0.2
		c1.4,4.3,5.3,7.4,10,7.4c-3.7,2.9-8.3,4.6-13.3,4.6c-0.9,0-1.7,0-2.6-0.1c4.7,3,10.4,4.8,16.4,4.8C56.3,69.7,67,53.4,67,39.2
		c0-0.5,0-0.9,0-1.4C69.1,36.3,70.9,34.4,72.4,32.3L72.4,32.3z M72.4,32.3"/>
</g>
</svg>
